<svg enable-background="new 0 0 200 200" viewBox="0 0 200 200" xmlns="http://www.w3.org/2000/svg" xmlns:xlink="http://www.w3.org/1999/xlink"><linearGradient id="a"><stop offset=".00000041024" stop-color="#e3ffca"/><stop offset="1" stop-color="#008c73"/></linearGradient><linearGradient id="b" gradientTransform="matrix(1 0 0 -1 0 -676)" gradientUnits="userSpaceOnUse" x1="68.0269" x2="85.1269" xlink:href="#a" y1="-771.5" y2="-771.5"/><linearGradient id="c" gradientTransform="matrix(1 0 0 -1 0 -676)" gradientUnits="userSpaceOnUse" x1="87.7731" x2="104.8731" xlink:href="#a" y1="-771.5" y2="-771.5"/><linearGradient id="d" gradientTransform="matrix(1 0 0 -1 0 -676)" gradientUnits="userSpaceOnUse" x1="107.5" x2="124.6" xlink:href="#a" y1="-771.5" y2="-771.5"/><linearGradient id="e" gradientTransform="matrix(1 0 0 -1 0 -676)" gradientUnits="userSpaceOnUse" x1="68.0269" x2="85.1269" xlink:href="#a" y1="-787.3" y2="-787.3"/><linearGradient id="f" gradientTransform="matrix(1 0 0 -1 0 -676)" gradientUnits="userSpaceOnUse" x1="87.7731" x2="104.8731" y1="-787.3" y2="-787.3"><stop offset=".00000041024" stop-color="#e3ffca"/><stop offset="1" stop-color="#ff00ae"/></linearGradient><linearGradient id="g" gradientTransform="matrix(1 0 0 -1 0 -676)" gradientUnits="userSpaceOnUse" x1="107.5" x2="124.6" xlink:href="#a" y1="-787.3" y2="-787.3"/><linearGradient id="h" gradientTransform="matrix(1 0 0 -1 0 -676)" gradientUnits="userSpaceOnUse" x1="68.0269" x2="85.1269" xlink:href="#a" y1="-803.1" y2="-803.1"/><linearGradient id="i" gradientTransform="matrix(1 0 0 -1 0 -676)" gradientUnits="userSpaceOnUse" x1="87.7731" x2="104.8731" xlink:href="#a" y1="-803.1" y2="-803.1"/><linearGradient id="j" gradientTransform="matrix(1 0 0 -1 0 -676)" gradientUnits="userSpaceOnUse" x1="107.5" x2="124.6" xlink:href="#a" y1="-803.1" y2="-803.1"/><path d="m85.5 102.3c0 6.9 5.6 12.4 12.4 12.4 6.9 0 12.4-5.6 12.4-12.4 0-2.4-.7-4.6-1.8-6.5l-.2-.3c0-.1-.1-.1-.1-.1l-11-16.8-10.1 17.2c-1 1.7-1.6 3.9-1.6 6.5z" fill="#ff002f"/><path d="m148.9 67.7-51 5.6-51-5.6v-12.8c0-2.6 2.1-4.6 4.6-4.6h92.8c2.6 0 4.6 2.1 4.6 4.6z" fill="#ff00ae"/><path d="m144.3 50.3h-7.4c2.6 0 4.6 2.1 4.6 4.6v15.8l7.4-3.1v-12.7c0-2.6-2.1-4.6-4.6-4.6z" fill="#ff00d6"/><path d="m144.3 153.9h-92.8c-2.6 0-4.6-2.1-4.6-4.6v-81.6h102v81.6c0 2.5-2.1 4.6-4.6 4.6z" fill="#effaff"/><path d="m141.5 67.7v81.6c0 2.6-2.1 4.6-4.6 4.6h7.4c2.6 0 4.6-2.1 4.6-4.6v-81.6z" fill="#00db9b"/><path d="m59.6 60.7c-1.9 0-3.5-1.6-3.5-3.5v-13.9c0-1.9 1.6-3.5 3.5-3.5s3.5 1.6 3.5 3.5v13.9c0 1.9-1.5 3.5-3.5 3.5z" fill="#ff5538"/><path d="m136.2 60.7c1.9 0 3.5-1.6 3.5-3.5v-13.9c0-1.9-1.6-3.5-3.5-3.5s-3.5 1.6-3.5 3.5v13.9c0 1.9 1.5 3.5 3.5 3.5z" fill="#ff5538"/><path d="m133.6 89c-.7 0-1.3.6-1.3 1.3 0 .2 0 .5.1.8.2.2.2.7.3 1 .5.8 1.1 1.6.9 1.9.4 0 1-.6 1.2-1.4.1-.4-.1-1.1 0-1.4s.1-.6.1-.8c0-.8-.6-1.4-1.3-1.4z" fill="#ff8bbb"/><path d="m130.1 90.5c-.5.5-.5 1.3 0 1.8.1.1.3.3.6.5.6 1.4 2.9.7 2.9 1.2.5-.5-1.2-3-1.7-3.5s-1.3-.5-1.8 0z" fill="#ff6ba8"/><path d="m128.7 94c0 .7.6 1.3 1.3 1.3.2 0 .5 0 .8-.1 1.5.4 2.5-1.6 2.9-1.2 0-.7-3-1.3-3.7-1.3s-1.3.6-1.3 1.3z" fill="#ff8bbb"/><path d="m130.1 97.5c.5.5 1.3.5 1.8 0 .1-.1.3-.3.5-.6 1.2-.5.6-2.9 1.2-2.9-.5-.5-3 1.2-3.5 1.7s-.5 1.3 0 1.8z" fill="#ff6ba8"/><path d="m133.6 98.9c.7 0 1.3-.6 1.3-1.3 0-.2 0-.5-.1-.8.4-1.4-1.6-2.5-1.2-2.9-.7 0-1.3 3-1.3 3.7.1.7.6 1.3 1.3 1.3z" fill="#ff8bbb"/><path d="m137.1 97.5c.5-.5.5-1.3 0-1.8-.1-.1-.3-.3-.6-.5-1-.6-2.9-.7-2.9-1.2-.5.5 1.2 3 1.7 3.5s1.3.5 1.8 0z" fill="#ff6ba8"/><path d="m138.6 94c0-.7-.6-1.3-1.3-1.3-.2 0-.5 0-.8.1-1.2-.1-2.5 1.6-2.9 1.2 0 .7 3 1.3 3.7 1.3.7-.1 1.3-.6 1.3-1.3z" fill="#ff8bbb"/><path d="m137.1 90.5c-.5-.5-1.3-.5-1.8 0-.1.1-.3.3-.5.6-.2 1.1-.6 2.9-1.2 2.9.5.5 3-1.2 3.5-1.7s.5-1.3 0-1.8z" fill="#ff6ba8"/><circle cx="133.6" cy="94" fill="#ffdf63" r="1.3"/><path d="m134 92.8c0 .1.1.3.1.4 0 .7-.6 1.3-1.3 1.3-.1 0-.3 0-.4-.1.2.5.6.9 1.2.9.7 0 1.3-.6 1.3-1.3 0-.6-.4-1.1-.9-1.2z" fill="#ffce3c"/><path d="m59.5 89c-.7 0-1.3.6-1.3 1.3 0 .2 0 .5.1.8.2.2.2.7.3 1 .5.8 1.1 1.6.8 1.9.4 0 1-.6 1.2-1.4.1-.4-.1-1.1 0-1.4s.1-.6.1-.8c0-.8-.5-1.4-1.2-1.4z" fill="#ff8bbb"/><path d="m56 90.5c-.5.5-.5 1.3 0 1.8.1.1.3.3.6.5.7 1.4 2.9.7 2.9 1.2.5-.5-1.2-3-1.7-3.5s-1.3-.5-1.8 0z" fill="#ff6ba8"/><path d="m54.5 94c0 .7.6 1.3 1.3 1.3.2 0 .5 0 .8-.1 1.5.4 2.5-1.6 2.9-1.2 0-.7-3-1.3-3.7-1.3s-1.3.6-1.3 1.3z" fill="#ff8bbb"/><path d="m56 97.5c.5.5 1.3.5 1.8 0 .1-.1.3-.3.5-.6 1.2-.5.7-2.9 1.2-2.9-.5-.5-3 1.2-3.5 1.7s-.5 1.3 0 1.8z" fill="#ff6ba8"/><path d="m59.5 98.9c.7 0 1.3-.6 1.3-1.3 0-.2 0-.5-.1-.8.4-1.4-1.6-2.5-1.2-2.9-.7 0-1.3 3-1.3 3.7s.6 1.3 1.3 1.3z" fill="#ff8bbb"/><path d="m63 97.5c.5-.5.5-1.3 0-1.8-.1-.1-.3-.3-.6-.5-1-.6-2.9-.7-2.9-1.2-.5.5 1.2 3 1.7 3.5s1.3.5 1.8 0z" fill="#ff6ba8"/><path d="m64.4 94c0-.7-.6-1.3-1.3-1.3-.2 0-.5 0-.8.1-1.2-.1-2.5 1.6-2.9 1.2 0 .7 3 1.3 3.7 1.3.7-.1 1.3-.6 1.3-1.3z" fill="#ff8bbb"/><path d="m63 90.5c-.5-.5-1.3-.5-1.8 0-.1.1-.3.3-.5.6-.2 1.1-.7 2.9-1.2 2.9.5.5 3-1.2 3.5-1.7s.5-1.3 0-1.8z" fill="#ff6ba8"/><circle cx="59.5" cy="94" fill="#ffdf63" r="1.3"/><path d="m59.9 92.8c0 .1.1.3.1.4 0 .7-.6 1.3-1.3 1.3-.1 0-.3 0-.4-.1.2.5.6.9 1.2.9.7 0 1.3-.6 1.3-1.3-.1-.6-.4-1.1-.9-1.2z" fill="#ffce3c"/><g fill="none"><path d="m78.1 101h-3.1c-3.1 0-5.5-2.5-5.5-5.5 0-3.1 2.5-5.5 5.5-5.5h3.1c3.1 0 5.5 2.5 5.5 5.5 0 3-2.4 5.5-5.5 5.5z" stroke="url(#b)" stroke-miterlimit="10" stroke-width="3"/><path d="m97.9 101h-3.1c-3.1 0-5.5-2.5-5.5-5.5 0-3.1 2.5-5.5 5.5-5.5h3.1c3.1 0 5.5 2.5 5.5 5.5 0 3-2.5 5.5-5.5 5.5z" stroke="url(#c)" stroke-miterlimit="10" stroke-width="3"/><path d="m117.6 101h-3.1c-3.1 0-5.5-2.5-5.5-5.5 0-3.1 2.5-5.5 5.5-5.5h3.1c3.1 0 5.5 2.5 5.5 5.5 0 3-2.5 5.5-5.5 5.5z" stroke="url(#d)" stroke-miterlimit="10" stroke-width="3"/><path d="m78.1 116.8h-3.1c-3.1 0-5.5-2.5-5.5-5.5 0-3.1 2.5-5.5 5.5-5.5h3.1c3.1 0 5.5 2.5 5.5 5.5 0 3-2.4 5.5-5.5 5.5z" stroke="url(#e)" stroke-miterlimit="10" stroke-width="3"/><path d="m97.9 116.8h-3.1c-3.1 0-5.5-2.5-5.5-5.5 0-3.1 2.5-5.5 5.5-5.5h3.1c3.1 0 5.5 2.5 5.5 5.5 0 3-2.5 5.5-5.5 5.5z" stroke="url(#f)" stroke-miterlimit="10" stroke-width="3"/><path d="m117.6 116.8h-3.1c-3.1 0-5.5-2.5-5.5-5.5 0-3.1 2.5-5.5 5.5-5.5h3.1c3.1 0 5.5 2.5 5.5 5.5 0 3-2.5 5.5-5.5 5.5z" stroke="url(#g)" stroke-miterlimit="10" stroke-width="3"/><path d="m78.1 132.6h-3.1c-3.1 0-5.5-2.5-5.5-5.5 0-3.1 2.5-5.5 5.5-5.5h3.1c3.1 0 5.5 2.5 5.5 5.5 0 3-2.4 5.5-5.5 5.5z" stroke="url(#h)" stroke-miterlimit="10" stroke-width="3"/><path d="m97.9 132.6h-3.1c-3.1 0-5.5-2.5-5.5-5.5 0-3.1 2.5-5.5 5.5-5.5h3.1c3.1 0 5.5 2.5 5.5 5.5 0 3-2.5 5.5-5.5 5.5z" stroke="url(#i)" stroke-miterlimit="10" stroke-width="3"/><path d="m117.6 132.6h-3.1c-3.1 0-5.5-2.5-5.5-5.5 0-3.1 2.5-5.5 5.5-5.5h3.1c3.1 0 5.5 2.5 5.5 5.5 0 3-2.5 5.5-5.5 5.5z" stroke="url(#j)" stroke-miterlimit="10" stroke-width="3"/></g><circle cx="133.4" cy="140.5" fill="#fb91b9" r="19.6"/><path d="m143.3 123.5c1.7 2.9 2.7 6.3 2.7 9.9 0 10.8-8.8 19.6-19.6 19.6-3.6 0-7-1-9.9-2.7 3.4 5.8 9.7 9.8 17 9.8 10.9 0 19.6-8.8 19.6-19.7 0-7.1-3.9-13.5-9.8-16.9z" fill="#fc76a6"/><path d="m133.5 129.4v13.4h9.2" style="fill:none;stroke:#f0f9fc;stroke-width:6;stroke-linecap:round;stroke-linejoin:round;stroke-miterlimit:10"/></svg>