<svg enable-background="new 0 0 200 200" viewBox="0 0 200 200" xmlns="http://www.w3.org/2000/svg"><path d="m74.3 79.6h51.5v42.8h-51.5z" fill="#aa5e2e"/><path d="m57.5 139.4v19.3l42.5 7 42.5-7v-19.3c0-9.6-6.6-17.9-15.9-20.1l-4.3-1h-44.6l-4.3 1c-9.3 2.2-15.9 10.5-15.9 20.1z" fill="#fddf76"/><g fill="#fcb038"><path d="m124.4 164.4c-1.4 0-2.5-1.1-2.5-2.5v-17.6c0-.7.3-1.3.7-1.8l2.2-2.2c1-1 2.5-1 3.5 0s1 2.5 0 3.5l-1.5 1.5v16.7c.1 1.3-1 2.4-2.4 2.4z"/><path d="m75.6 164.4c-1.4 0-2.5-1.1-2.5-2.5v-16.5l-1.5-1.5c-1-1-1-2.5 0-3.5s2.5-1 3.5 0l2.2 2.2c.5.5.7 1.1.7 1.8v17.6c.1 1.3-1.1 2.4-2.4 2.4z"/><path d="m100 163.9c-1.4 0-2.5-1.1-2.5-2.5v-40.2c0-1.4 1.1-2.5 2.5-2.5s2.5 1.1 2.5 2.5v40.2c0 1.3-1.1 2.5-2.5 2.5z"/></g><path d="m100 115.1v8.8l2.5 6.5c1.6 4.2 6.7 5.8 10.4 3.2 5-3.5 8.5-9 9.4-15.3l-13.5-3.2z" fill="#f0f9fc"/><path d="m100 115.1v8.8l-2.5 6.5c-1.6 4.2-6.7 5.8-10.4 3.2-5-3.5-8.5-9-9.4-15.3l13.5-3.2z" fill="#f0f9fc"/><path d="m108.8 115.1v-10.3h-17.6v10.3c0 4.8 3.9 8.8 8.8 8.8 4.8 0 8.8-3.9 8.8-8.8z" fill="#f4a76c"/><path d="m100 107.2c-11.3 0-20.4-9.2-20.4-20.4v-.8l-4.3-6.4 4.3-5.1v-18.5h40.9v30.8c-.1 11.2-9.2 20.4-20.5 20.4z" fill="#fcd0a2"/><path d="m110.1 56v30.8c0 9.5-6.5 17.5-15.3 19.8 1.7.4 3.4.7 5.2.7 11.3 0 20.4-9.2 20.4-20.4v-.8l2.8-6.4-2.8-6.4v-17.3z" fill="#fdbb84"/><path d="m101.1 62.6c5.7 9.2 19.3 10.6 19.3 10.6l5.3 2.1v-14.6c0-14.2-11.5-25.7-25.7-25.7s-25.7 11.5-25.7 25.7v14.6l5.3-2.1s13.6-1.4 19.3-10.6c.5-.8 1.7-.8 2.2 0z" fill="#d57e4a"/><path d="m120.4 73.2 5.3 2.1v-14.6c0-14.2-11.5-25.7-25.7-25.7-1.8 0-3.5.2-5.2.5 11.8 2.4 20.6 12.8 20.6 25.2v11.5c2.9.8 5 1 5 1z" fill="#c66e36"/><path d="m124.7 85.9h-4.2v-12.7h4.2c3.5 0 6.4 2.8 6.4 6.4 0 3.5-2.9 6.3-6.4 6.3z" fill="#f4a76c"/><path d="m75.3 85.9h4.2v-12.7h-4.2c-3.5 0-6.4 2.8-6.4 6.4 0 3.5 2.9 6.3 6.4 6.3z" fill="#f4a76c"/><path d="m166 169h-132c-1.5 0-2.8-1.2-2.8-2.8v-4.8c0-1.5 1.2-2.8 2.8-2.8h132c1.5 0 2.8 1.2 2.8 2.8v4.8c-.1 1.5-1.3 2.8-2.8 2.8z" fill="#528cd6"/><path d="m166 158.7h-11.7c1.5 0 2.8 1.2 2.8 2.8v4.8c0 1.5-1.2 2.8-2.8 2.8h11.7c1.5 0 2.8-1.2 2.8-2.8v-4.8c-.1-1.6-1.3-2.8-2.8-2.8z" fill="#0673cc"/><path d="m131.5 62.4c1.1.3 2.2.7 3.2 1 1.2-6.4-2.1-16.3-12.6-22.8-11.6-7.3-27.6-8.1-40.4-2.1-12.6 5.9-17.7 16.4-16.6 25 1.1-.3 2.2-.7 3.3-1.1v26.4c-.3-.1-.6-.2-.9-.3-1.8-.6-3.7-1.2-5.6-1.8-2.2-.7-3.4-2.1-4.4-3.7-.1-.2-.1-.5-.1-.7 0-4.3 0-8.5 0-12.8 0-1.1.3-2 1.1-2.8.5-.4.9-1 1.5-1.3.8-.4.8-.9.8-1.6-.8-12.2 5.4-21.8 19-28.2 12.8-6 26.4-6.1 39.5-.5 11.8 5.1 18.4 13 19.8 23.4.3 1.9 0 3.8.1 5.7 0 .3.2.6.5.8.9 1 1.8 1.9 2.7 2.8.2.2.2.5.2.7v13.8c0 .3-.1.6-.3.9-1 1.7-2.6 2.9-5 3.6-1.9.5-3.7 1.2-5.7 1.8-.1-8.6-.1-17.3-.1-26.2z" fill="#ba308a"/><path d="m69.4 75.6c0-3.9 0-7.8 0-11.7 0-1.2.3-1.5 1.9-1.5 1.9 0 2.2.2 2.2 1.6v23.1.8c0 .1-.1.3-.2.4-.8.8-1.9.5-2.9.4-.8-.1-1-.6-1-1.2 0-3.9 0-7.9 0-11.9z" fill="#ba308a"/><path d="m130.6 75.6v11.8c0 1.2-.3 1.4-1.9 1.4-1.9 0-2.2-.2-2.2-1.7 0-7.8 0-15.5 0-23.3 0-.6-.1-1.2.8-1.4.9-.1 1.9-.1 2.7.1.3.1.5.7.5 1.1.1 4.1.1 8.1.1 12z" fill="#ba308a"/><path d="m70.6 85.8c-.4.5-.2 1.3.4 1.7l16.5 12.2c1.2.9 2.6 1.3 3.9 1.2l5.5-.5c.7-.1 1.1-.6 1-1.3s-.8-1.1-1.5-1.1l-5.5.5c-.7.1-1.4-.2-2.1-.6l-16.5-12.2c-.6-.4-1.3-.4-1.7.1z" fill="#2cd69e"/><path d="m96.9 96.7-1.5.1c-1.4.1-2.3 1.3-2 2.7s1.7 2.4 3.1 2.3l1.5-.1c1.4-.1 2.3-1.3 2-2.7s-1.7-2.5-3.1-2.3z" fill="#fd013b"/></svg>