<svg enable-background="new 0 0 200 200" viewBox="0 0 200 200" xmlns="http://www.w3.org/2000/svg"><path d="m174.2 141.9v-58.2c0-4.4-3.6-7.9-7.9-7.9h-114.2c-4.4 0-7.9 3.5-7.9 7.9v58.2c0 4.4 3.5 7.9 7.9 7.9h114.2c4.4 0 7.9-3.6 7.9-7.9z" fill="#97e4fa"/><path d="m174.2 141.9v-8.5c0 4.4-3.6 7.9-7.9 7.9h-114.2c-4.4 0-7.9-3.6-7.9-7.9v8.5c0 4.4 3.5 7.9 7.9 7.9h114.2c4.4 0 7.9-3.6 7.9-7.9z" fill="#61d9f9"/><path d="m59 41.3v50.8c0 3.5 2.8 6.3 6.3 6.3h26.7c.8 0 1.6.4 2.1 1.1l5.4 8.1c2.1 3.1 6.7 3.1 8.8 0l5.4-8.1c.5-.7 1.3-1.1 2.1-1.1h26.7c3.5 0 6.4-2.8 6.4-6.3v-50.8c0-3.5-2.8-6.3-6.4-6.3h-77.2c-3.5 0-6.3 2.8-6.3 6.3z" fill="#fddf76"/><path d="m122.4 114.3v17.8c0 1.2 1 2.2 2.2 2.2h9.4c.3 0 .6.2.7.4l1.9 2.8c.7 1.1 2.4 1.1 3.1 0l1.9-2.8c.2-.2.4-.4.7-.4h9.4c1.2 0 2.2-1 2.2-2.2v-17.8c0-1.2-1-2.2-2.2-2.2h-27.1c-1.2 0-2.2 1-2.2 2.2z" fill="#fddf76"/><path d="m142.6 35h-10.6c3.5 0 6.4 2.8 6.4 6.3v50.8c0 3.5-2.8 6.3-6.4 6.3h10.6c3.5 0 6.4-2.8 6.4-6.3v-50.8c-.1-3.5-2.9-6.3-6.4-6.3z" fill="#fdcf5b"/><path d="m127.2 49.4c-6.3-6.6-16.8-6.7-23.2-.3-6.4-6.4-16.9-6.3-23.2.3-6.1 6.4-5.8 16.5.4 22.7l18.1 18.1c2.6 2.6 6.8 2.6 9.4 0l18.1-18.1c6.2-6.2 6.4-16.3.4-22.7z" fill="#fb91b9"/><path d="m127.2 49.4c-2.3-2.4-5.2-4-8.2-4.7 1.6 3.3 2.4 7 2.4 11 0 14.2-11.5 25.8-25.8 25.8-2 0-3.9-.2-5.7-.6l9.3 9.3c2.6 2.6 6.8 2.6 9.4 0l18.1-18.1c6.3-6.2 6.5-16.3.5-22.7z" fill="#fc76a6"/><path d="m142.9 119c-1.5-1.5-3.9-1.6-5.4-.1-1.5-1.5-3.9-1.5-5.4.1-1.4 1.5-1.3 3.8.1 5.3l4.2 4.2c.6.6 1.6.6 2.2 0l4.2-4.2c1.5-1.5 1.5-3.8.1-5.3z" fill="#fb91b9"/><path d="m142.9 119c-.5-.6-1.2-.9-1.9-1.1.4.8.6 1.6.6 2.5 0 3.3-2.7 6-6 6-.4 0-.9-.1-1.3-.2l2.2 2.2c.6.6 1.6.6 2.2 0l4.2-4.2c1.4-1.4 1.4-3.7 0-5.2z" fill="#fc76a6"/><path d="m164.4 115.4v-5.3c0-1.1.9-1.9 1.9-1.9s1.9.8 1.9 1.9v5.3c0 1.1-.9 1.9-1.9 1.9-1.1 0-1.9-.8-1.9-1.9z" fill="#04cef9"/><path d="m113 64.6c0-5-4.1-9-9.1-9s-9.1 4.1-9.1 9c0 4.3 3.1 8 7.1 8.8v2.1h-1.7c-1.1 0-1.9.8-1.9 1.9s.8 1.9 1.9 1.9h1.7v1.9c0 1 .8 1.9 1.9 1.9s1.9-.8 1.9-1.9v-1.9h1.7c1.1 0 1.9-.8 1.9-1.9 0-1-.8-1.9-1.9-1.9h-1.7v-2.1c4.2-.8 7.3-4.4 7.3-8.8zm-14.3 0c0-2.9 2.3-5.2 5.2-5.2s5.2 2.3 5.2 5.2-2.3 5.2-5.2 5.2-5.2-2.3-5.2-5.2z" fill="#f0f9fc"/><g fill="#04cef9"><circle cx="166.3" cy="123.3" r="1.9"/><circle cx="166.3" cy="102.2" r="1.9"/><path d="m50.2 116.7v-7.8c0-1.1.8-1.9 1.9-1.9s1.9.8 1.9 1.9v7.8c0 1.1-.8 1.9-1.9 1.9s-1.9-.8-1.9-1.9z"/></g><path d="m39.3 95.3v23.6c0 1.1.9 2.1 2.1 2.1h37.6c1.1 0 2.1-.9 2.1-2.1v-23.6z" fill="#aa5e2e"/><path d="m84.5 128.2h-48.6c-5.9 1.6-10.1 7.1-10.1 13.3v21.5c0 1.1.9 2.1 2.1 2.1h8.1l1.6-1.7 1.5 1.7h42.1l1.5-1.5 1.6 1.5h8.2c1.1 0 2.1-.9 2.1-2.1v-21.5c0-6.2-4.2-11.7-10.1-13.3z" fill="#fb91b9"/><path d="m50.5 146.4c2.5 2.7 6 4.2 9.7 4.2s7.2-1.5 9.7-4.2l11.4-12.2c1.6-1.7 2.7-3.8 3.2-6-.2-.1-.3-.1-.5-.1l-16.7-3.9h-14.2l-16.7 3.9c-.2 0-.3.1-.5.1.5 2.2 1.7 4.3 3.2 6z" fill="#ddf4fb"/><path d="m67.3 122.5v-6.8h-14.2v6.8c0 1-.7 1.8-1.6 2l-9.4 2.2c.3 1.2.8 2.2 1.7 3.1l11.4 12.2c1.3 1.4 3.1 2.2 5 2.2s3.7-.8 5-2.2l11.4-12.2c.8-.9 1.4-2 1.7-3.1l-9.4-2.2c-1-.2-1.6-1.1-1.6-2z" fill="#f4a76c"/><path d="m60.2 117.7c-9.2 0-16.6-7.4-16.6-16.6v-.7l-3.8-5.2 3.8-5.2v-8.6h33.1v19.6c.1 9.2-7.4 16.7-16.5 16.7z" fill="#fcd0a2"/><path d="m70.3 81.5v19.6c0 8-5.7 14.8-13.3 16.2 1 .2 2.1.3 3.2.3 9.2 0 16.6-7.4 16.6-16.6v-.7l3.4-5.2-3.4-5.2v-8.6h-6.5z" fill="#fdbb84"/><path d="m72.3 63.4c-1.6-2.7-4.4-4.3-7.5-4.3h-8.3c-9.5 0-17.2 7.7-17.2 17.2v15.5l4.3-1.7h.7c6.5-.1 11.3-2.1 13.1-3.1.4-.2.9.1.9.5v1.8c0 .5.4.8.9.8 6.7-.4 10.9-5.2 12.5-7.5.4-.5 1.1-.5 1.4.1l3.7 7.3 4.3 1.7v-15.7c0-5.6-3.5-10.6-8.8-12.6z" fill="#d57e4a"/><path d="m72.3 63.4c-1.6-2.7-4.4-4.3-7.5-4.3h-6.5c2.9 0 5.6 1.4 7.2 3.8.3.4.6.7 1.1.8 4.8 2.1 8 6.9 8 12.2v9.9l2.2 4.3 4.3 1.7v-15.9c0-5.5-3.5-10.5-8.8-12.5z" fill="#c66e36"/><path d="m80.2 100.5h-3.4v-10.4h3.4c2.8 0 5.2 2.3 5.2 5.2-.1 2.8-2.4 5.2-5.2 5.2z" fill="#f4a76c"/><path d="m40.2 100.5h3.4v-10.4h-3.4c-2.8 0-5.2 2.3-5.2 5.2 0 2.8 2.3 5.2 5.2 5.2z" fill="#f4a76c"/><path d="m85.6 150.6c-.6-.6-1.6-.6-2.2 0l-1.8 1.8c-.3.3-.4.7-.4 1.1v11.5h3.1v-10.9l1.3-1.3c.6-.7.6-1.6 0-2.2z" fill="#fc5692"/><path d="m36.9 150.6c-.6-.6-1.6-.6-2.2 0s-.6 1.6 0 2.2l1.3 1.3v10.9h3.1v-11.6c0-.4-.2-.8-.4-1.1z" fill="#fc5692"/></svg>