<svg enable-background="new 0 0 200 200" viewBox="0 0 200 200" xmlns="http://www.w3.org/2000/svg"><path d="m56.9 38-4.3 42.7-2.7 7.4 44.1-7v-43.1z" fill="#e7fdce"/><path d="m90.3 38v43.8l3.7-.6v-43.2z" fill="#0ef0a4"/><path d="m49.9 45v43.2h7v-50.2c-3.8 0-7 3.1-7 7z" fill="#fddf76"/><path d="m92.2 87.5 1.9-2.8v-3.5h-37.2c-1.9 0-3.7.8-4.9 2s-2 3-2 4.9c0 3.8 3.1 7 7 7h4.5 4 28.6v-3.5z" fill="#0ef0a4"/><path d="m94.1 91.6-1.9-4.1 1.9-2.8v-3.5h-3.7v13.9h3.7z" fill="#0ce199"/><path d="m56.9 91.6c-1.9 0-3.5-1.6-3.5-3.5s1.6-3.5 3.5-3.5h37.1v7z" fill="#ddf4fb"/><path d="m90.3 84.7h3.7v7h-3.7z" fill="#c6edfc"/><path d="m83.8 75.1h-16.7c-.5 0-.9-.4-.9-.9v-1.6c0-.5.4-.9.9-.9h16.7c.5 0 .9.4.9.9v1.6c.1.5-.3.9-.9.9z" fill="#fddf76"/><path d="m83.8 71.7h-3.7c.5 0 .9.4.9.9v1.6c0 .5-.4.9-.9.9h3.7c.5 0 .9-.4.9-.9v-1.6c.1-.5-.3-.9-.9-.9z" fill="#fdcf5b"/><g fill="#97e4fa"><path d="m89.4 89h-3.9c-.5 0-.8-.4-.8-.8s.4-.8.8-.8h3.9c.5 0 .8.4.8.8s-.3.8-.8.8z"/><path d="m74.4 89h-16.3c-.5 0-.8-.4-.8-.8s.4-.8.8-.8h16.3c.5 0 .8.4.8.8s-.4.8-.8.8z"/><path d="m81.8 89h-3.7c-.5 0-.8-.4-.8-.8s.4-.8.8-.8h3.7c.5 0 .8.4.8.8s-.4.8-.8.8z"/></g><path d="m77.7 65.2c-.2-.3-.3-.8-.4-1.2-.9 1-2.1 1.5-3.5 1.5s-2.5-.4-3.4-1.2-1.3-1.8-1.3-3c0-1.5.5-2.6 1.6-3.4s2.7-1.2 4.7-1.2h1.7v-.8c0-.6-.2-1.2-.5-1.5s-.9-.6-1.6-.6c-.6 0-1.1.2-1.5.5s-.5.7-.5 1.2h-3.7c0-.8.2-1.6.7-2.2s1.2-1.2 2.1-1.6 1.9-.6 3.1-.6c1.7 0 3.1.4 4.1 1.3s1.5 2.1 1.5 3.6v6c0 1.3.2 2.3.6 3v.2zm-3.1-2.5c.5 0 1.1-.1 1.5-.4.5-.2.8-.6 1-1v-2.4h-1.4c-1.9 0-2.9.6-3 1.9v.2c0 .5.2.8.5 1.1.4.4.8.6 1.4.6z" fill="#ba308a"/><path d="m112.9 67.7-4.3 42.7-2.7 7.4 44.1-7v-43.1z" fill="#2cd69e"/><path d="m146.3 67.7v43.8l3.7-.6v-43.2z" fill="#0ef0a4"/><path d="m105.9 74.7v43.2h7v-50.2c-3.8 0-7 3.1-7 7z" fill="#fddf76"/><path d="m148.2 117.2 1.9-2.8v-3.5h-37.1c-1.9 0-3.7.8-4.9 2-1.3 1.3-2 3-2 4.9 0 3.8 3.1 7 7 7h4.6 4 28.3v-3.5z" fill="#0ef0a4"/><path d="m150.1 121.4-1.9-4.1 1.9-2.8v-3.5h-3.7v13.9h3.7z" fill="#0ce199"/><path d="m112.9 121.4c-1.9 0-3.5-1.6-3.5-3.5s1.6-3.5 3.5-3.5h37.1v7z" fill="#ddf4fb"/><path d="m146.3 114.4h3.7v7h-3.7z" fill="#c6edfc"/><path d="m139.8 104.9h-16.7c-.5 0-.9-.4-.9-.9v-1.6c0-.5.4-.9.9-.9h16.7c.5 0 .9.4.9.9v1.6c.1.5-.3.9-.9.9z" fill="#fddf76"/><path d="m139.8 101.4h-3.7c.5 0 .9.4.9.9v1.6c0 .5-.4.9-.9.9h3.7c.5 0 .9-.4.9-.9v-1.6c.1-.5-.3-.9-.9-.9z" fill="#fdcf5b"/><path d="m145.4 118.7h-3.9c-.5 0-.8-.4-.8-.8s.4-.8.8-.8h3.9c.5 0 .8.4.8.8s-.3.8-.8.8z" fill="#97e4fa"/><path d="m130.4 118.7h-16.3c-.5 0-.8-.4-.8-.8s.4-.8.8-.8h16.3c.5 0 .8.4.8.8s-.4.8-.8.8z" fill="#97e4fa"/><path d="m137.8 118.7h-3.7c-.5 0-.8-.4-.8-.8s.4-.8.8-.8h3.7c.5 0 .8.4.8.8s-.4.8-.8.8z" fill="#97e4fa"/><path d="m137.2 89.8c0 2.2-.5 4-1.4 5.2s-2.3 1.9-4 1.9c-1.5 0-2.7-.6-3.6-1.7l-.2 1.5h-3.3v-19.9h3.7v7.1c.9-1 2-1.5 3.4-1.5 1.7 0 3 .6 4 1.9s1.4 3 1.4 5.3zm-3.7-.3c0-1.4-.2-2.4-.7-3.1s-1.1-1-2-1c-1.2 0-2 .5-2.4 1.5v5.5c.5 1 1.3 1.5 2.5 1.5s2-.6 2.4-1.8c.1-.6.2-1.4.2-2.6z" fill="#fd09cf"/><path d="m62.2 104.9-4.3 42.7-2.7 7.4 44.1-7v-43.2z" fill="#fd6448"/><path d="m95.6 104.9v43.8l3.7-.6v-43.2z" fill="#0ef0a4"/><path d="m55.2 111.8v43.2h7v-50.1c-3.9 0-7 3.1-7 6.9z" fill="#fddf76"/><path d="m97.5 154.4 1.9-2.8v-3.5h-37.2c-1.9 0-3.7.8-4.9 2-1.3 1.3-2 3-2 4.9 0 3.9 3.1 7 7 7h4.6 4 28.6v-3.5z" fill="#0ef0a4"/><path d="m99.3 158.5-1.9-4.1 1.9-2.8v-3.5h-3.7v13.9h3.7z" fill="#0ce199"/><path d="m62.2 158.5c-1.9 0-3.5-1.6-3.5-3.5s1.6-3.5 3.5-3.5h37.1v7z" fill="#ddf4fb"/><path d="m95.6 151.5h3.7v7h-3.7z" fill="#c6edfc"/><path d="m89.1 142h-16.7c-.5 0-.9-.4-.9-.9v-1.6c0-.5.4-.9.9-.9h16.7c.5 0 .9.4.9.9v1.6c0 .5-.4.9-.9.9z" fill="#fddf76"/><path d="m89.1 138.5h-3.7c.5 0 .9.4.9.9v1.6c0 .5-.4.9-.9.9h3.7c.5 0 .9-.4.9-.9v-1.6c0-.4-.4-.9-.9-.9z" fill="#fdcf5b"/><path d="m94.7 155.9h-3.9c-.5 0-.8-.4-.8-.8 0-.5.4-.8.8-.8h3.9c.5 0 .8.4.8.8s-.4.8-.8.8z" fill="#97e4fa"/><path d="m79.6 155.9h-16.3c-.5 0-.8-.4-.8-.8 0-.5.4-.8.8-.8h16.3c.5 0 .8.4.8.8.1.4-.3.8-.8.8z" fill="#97e4fa"/><path d="m87 155.9h-3.7c-.5 0-.8-.4-.8-.8 0-.5.4-.8.8-.8h3.7c.5 0 .8.4.8.8.1.4-.3.8-.8.8z" fill="#97e4fa"/><path d="m80.3 130.5c.7 0 1.2-.2 1.7-.6.4-.4.7-.9.7-1.5h3.5c0 .9-.3 1.8-.8 2.6s-1.2 1.4-2.1 1.8-1.9.6-2.9.6c-2 0-3.6-.6-4.7-1.9s-1.7-3-1.7-5.2v-.2c0-2.1.6-3.9 1.7-5.1 1.1-1.3 2.7-1.9 4.7-1.9 1.7 0 3.1.5 4.2 1.5s1.6 2.3 1.6 4h-3.5c0-.7-.2-1.3-.7-1.8-.4-.5-1-.7-1.7-.7-.9 0-1.5.3-2 .9-.4.6-.7 1.7-.7 3.1v.4c0 1.4.2 2.5.7 3.1.4.6 1.1.9 2 .9z" fill="#e7fdce"/></svg>