<svg enable-background="new 0 0 200 200" viewBox="0 0 200 200" xmlns="http://www.w3.org/2000/svg"><path d="m99.8 143.1h-26.5v-9.2c0-.6-.5-1.2-1.2-1.2s-1.2.5-1.2 1.2v9.2h-26.5c-.7 0-1.2.5-1.2 1.2v12.5c0 .6.5 1.2 1.2 1.2s1.2-.5 1.2-1.2v-11.3h25.4v11.3c0 .6.5 1.2 1.2 1.2s1.2-.5 1.2-1.2v-11.3h25.3v11.3c0 .6.5 1.2 1.2 1.2s1.2-.5 1.2-1.2v-12.4c-.1-.8-.6-1.3-1.3-1.3z" fill="#9caab8"/><path d="m59.9 100.9h24.5v20.4h-24.5z" fill="#aa5e2e"/><path d="m84.8 119.8-2-.5h-21.3l-2 .5c-4.4 1.1-7.6 5-7.6 9.6v5.7c0 1 .8 1.9 1.9 1.9h4.9l1.2-1.3 1.2 1.3h22.3l1.2-1.3 1.2 1.3h4.8c1 0 1.9-.8 1.9-1.9v-5.7c-.1-4.6-3.3-8.5-7.7-9.6z" fill="#528cd6"/><path d="m78.7 126.1-5.2 8.6c-.6 1-2.1 1-2.7 0l-5.2-8.6 6.5-4.2z" fill="#97e4fa"/><path d="m72.2 128.7c-.7 0-1.2-.5-1.2-1.2v-7.1c0-.7.5-1.2 1.2-1.2s1.2.5 1.2 1.2v7.1c-.1.7-.6 1.2-1.2 1.2z" fill="#fc76a6"/><path d="m68 117.8-6.5 1.5 4.1 6.8c.5.9 1.8 1 2.5.2l2.9-3.2c.6-.7 1.7-.7 2.3 0l2.9 3.1c.7.8 2 .7 2.5-.2l4.1-6.8-6.5-1.5z" fill="#f0f9fc"/><path d="m76.3 117.8v-4.9h-8.3v4.9c0 2.3 1.9 4.2 4.2 4.2 2.2 0 4.1-1.9 4.1-4.2z" fill="#f4a76c"/><path d="m72.1 114c-5.4 0-9.7-4.4-9.7-9.7v-.4l-1.9-3.1 1.9-3v-6.6h19.5v13.1c0 5.3-4.4 9.7-9.8 9.7z" fill="#fcd0a2"/><path d="m77 91.2v13.1c0 4.5-3.1 8.3-7.3 9.4.8.2 1.6.3 2.5.3 5.4 0 9.7-4.4 9.7-9.7v-.4l2.1-3-2.1-3v-6.6z" fill="#fdbb84"/><path d="m72.7 92.8c2.7 4.4 9.2 5 9.2 5l2.5 1.9v-6.3c0-6.8-5.5-12.3-12.3-12.3s-12.3 5.5-12.3 12.3v5.6l2.5-1.2s6.5-.7 9.2-5c.3-.4.9-.4 1.2 0z" fill="#d57e4a"/><path d="m81.9 97.8 2.5 1.9v-6.3c0-6.8-5.5-12.3-12.3-12.3-.8 0-1.7.1-2.5.2 5.6 1.1 9.8 6.1 9.8 12v3.8c1.5.6 2.5.7 2.5.7z" fill="#c66e36"/><path d="m83.9 103.9h-2v-6.1h2c1.7 0 3 1.4 3 3 0 1.7-1.3 3.1-3 3.1z" fill="#f4a76c"/><path d="m60.4 103.9h2v-6.1h-2c-1.7 0-3 1.4-3 3-.1 1.7 1.3 3.1 3 3.1z" fill="#f4a76c"/><path d="m86.3 129.9c-.5-.5-1.2-.5-1.7 0l-1 1c-.2.2-.3.5-.3.8v5.2h2.3v-4.7l.7-.7c.5-.4.5-1.2 0-1.6z" fill="#0167c3"/><path d="m59.6 129.9c-.5-.5-1.2-.5-1.7 0s-.5 1.2 0 1.7l.7.7v4.7h2.4v-5.2c0-.3-.1-.6-.3-.8z" fill="#0167c3"/><path d="m79.6 161.6h-14.9c-1.2 0-2.3-1-2.3-2.3v-5.2c0-1.2 1-2.3 2.3-2.3h14.9c1.2 0 2.3 1 2.3 2.3v5.2c0 1.2-1 2.3-2.3 2.3z" fill="#6cf3c0"/><path d="m107.3 161.6h-14.9c-1.2 0-2.3-1-2.3-2.3v-5.2c0-1.2 1-2.3 2.3-2.3h14.9c1.2 0 2.3 1 2.3 2.3v5.2c0 1.2-1 2.3-2.3 2.3z" fill="#fb91b9"/><path d="m107.3 151.8h-6.5c1.2 0 2.3 1 2.3 2.3v5.2c0 1.2-1 2.3-2.3 2.3h6.5c1.2 0 2.3-1 2.3-2.3v-5.2c0-1.3-1-2.3-2.3-2.3z" fill="#fc76a6"/><path d="m79.6 151.8h-6.5c1.2 0 2.3 1 2.3 2.3v5.2c0 1.2-1 2.3-2.3 2.3h6.5c1.2 0 2.3-1 2.3-2.3v-5.2c0-1.3-1-2.3-2.3-2.3z" fill="#0ef0a4"/><path d="m37 161.6h14.9c1.2 0 2.3-1 2.3-2.3v-5.2c0-1.2-1-2.3-2.3-2.3h-14.9c-1.2 0-2.3 1-2.3 2.3v5.2c0 1.2 1 2.3 2.3 2.3z" fill="#fddf76"/><path d="m51.9 151.8h-6.5c1.2 0 2.3 1 2.3 2.3v5.2c0 1.2-1 2.3-2.3 2.3h6.5c1.2 0 2.3-1 2.3-2.3v-5.2c0-1.3-1.1-2.3-2.3-2.3z" fill="#fdcf5b"/><path d="m155.6 143h-26.6v-9.2c0-.6-.5-1.2-1.2-1.2s-1.2.5-1.2 1.2v9.2h-26.5c-.7 0-1.2.5-1.2 1.2v12.5c0 .6.5 1.2 1.2 1.2s1.2-.5 1.2-1.2v-11.3h25.3v11.3c0 .6.5 1.2 1.2 1.2s1.2-.5 1.2-1.2v-11.3h25.4v11.3c0 .6.5 1.2 1.2 1.2s1.2-.5 1.2-1.2v-12.4c0-.8-.6-1.3-1.2-1.3z" fill="#2f5f8a"/><path d="m115.6 100.7h24.5v20.4h-24.5z" fill="#a7551d"/><path d="m140.5 119.7-2-.5h-21.3l-2 .5c-4.4 1.1-7.6 5-7.6 9.6v5.7c0 1 .8 1.9 1.9 1.9h4.9l1.2-1.3 1.2 1.3h22.2l1.1-1.3 1.2 1.3h4.8c1 0 1.9-.8 1.9-1.9v-5.7c.1-4.6-3-8.5-7.5-9.6z" fill="#00419e"/><path d="m134.4 126-5.2 8.6c-.6 1-2.1 1-2.7 0l-5.2-8.6 6.5-4.2z" fill="#3f9eb7"/><path d="m127.9 128.6c-.7 0-1.2-.5-1.2-1.2v-7.1c0-.6.5-1.2 1.2-1.2.6 0 1.2.5 1.2 1.2v7.1c0 .7-.6 1.2-1.2 1.2z" fill="#893956"/><path d="m123.7 117.7-6.5 1.5 4.1 6.8c.5.9 1.8 1 2.5.2l2.9-3.2c.6-.7 1.7-.7 2.3 0l2.9 3.2c.7.8 2 .6 2.5-.2l4.1-6.8-6.5-1.5z" fill="#439dba"/><path d="m132 117.7v-4.9h-8.3v4.9c0 2.3 1.9 4.2 4.2 4.2s4.1-1.9 4.1-4.2z" fill="#c68757"/><path d="m127.9 113.9c-5.4 0-9.7-4.4-9.7-9.7v-.4l-1.9-3.1 1.9-3v-6.6h19.5v13.1c-.1 5.3-4.5 9.7-9.8 9.7z" fill="#edac67"/><path d="m132.7 91.1v13.1c0 4.5-3.1 8.3-7.3 9.4.8.2 1.6.3 2.5.3 5.4 0 9.7-4.4 9.7-9.7v-.4l2.1-3-2.1-3v-6.6z" fill="#c17531"/><path d="m128.4 92.7c2.7 4.4 9.2 5 9.2 5l2.5 1.9v-6.3c0-6.8-5.5-12.3-12.3-12.3s-12.3 5.5-12.3 12.3v5.5l2.5-1.2s6.5-.7 9.2-5c.4-.3.9-.3 1.2.1z" fill="#d57e4a"/><path d="m137.6 97.7 2.5 1.9v-6.3c0-6.8-5.5-12.3-12.3-12.3-.8 0-1.7.1-2.5.2 5.6 1.1 9.8 6.1 9.8 12v3.8c1.5.6 2.5.7 2.5.7z" fill="#926041"/><path d="m139.6 103.8h-2v-6.1h2c1.7 0 3 1.4 3 3 .1 1.7-1.3 3.1-3 3.1z" fill="#c68757"/><path d="m116.1 103.8h2v-6.1h-2c-1.7 0-3 1.4-3 3 0 1.7 1.3 3.1 3 3.1z" fill="#c68757"/><path d="m142 129.8c-.5-.5-1.2-.5-1.7 0l-1 1c-.2.2-.3.5-.3.8v5.2h2.4v-4.7l.7-.7c.4-.4.4-1.2-.1-1.6z" fill="#1e4e83"/><path d="m115.4 129.8c-.5-.5-1.2-.5-1.7 0s-.5 1.2 0 1.7l.7.7v4.7h2.3v-5.2c0-.3-.1-.6-.3-.8z" fill="#1e4e83"/><path d="m135.3 161.5h-14.9c-1.2 0-2.3-1-2.3-2.3v-5.2c0-1.2 1-2.3 2.3-2.3h14.9c1.2 0 2.3 1 2.3 2.3v5.2c0 1.2-1 2.3-2.3 2.3z" fill="#208160"/><path d="m163 161.5h-14.9c-1.2 0-2.3-1-2.3-2.3v-5.2c0-1.2 1-2.3 2.3-2.3h14.9c1.2 0 2.3 1 2.3 2.3v5.2c0 1.2-1 2.3-2.3 2.3z" fill="#893b5a"/><path d="m163 151.7h-6.5c1.2 0 2.3 1 2.3 2.3v5.2c0 1.2-1 2.3-2.3 2.3h6.5c1.2 0 2.3-1 2.3-2.3v-5.2c0-1.3-1-2.3-2.3-2.3z" fill="#893956"/><path d="m135.3 151.7h-6.5c1.2 0 2.3 1 2.3 2.3v5.2c0 1.2-1 2.3-2.3 2.3h6.5c1.2 0 2.3-1 2.3-2.3v-5.2c0-1.3-1-2.3-2.3-2.3z" fill="#00d980"/><path d="m92.7 161.5h14.9c1.2 0 2.3-1 2.3-2.3v-5.2c0-1.2-1-2.3-2.3-2.3h-14.9c-1.2 0-2.3 1-2.3 2.3v5.2c0 1.2 1 2.3 2.3 2.3z" fill="#ffcf00"/><path d="m107.6 151.7h-6.5c1.2 0 2.3 1 2.3 2.3v5.2c0 1.2-1 2.3-2.3 2.3h6.5c1.2 0 2.3-1 2.3-2.3v-5.2c0-1.3-1-2.3-2.3-2.3z" fill="#a7800a"/><path d="m114.9 53.2c0-8.1-6.6-14.8-14.8-14.8s-14.8 6.6-14.8 14.8c0 7.1 5 13 11.6 14.4v3.4h-2.7c-1.7 0-3.1 1.4-3.1 3.1s1.4 3.1 3.1 3.1h2.7v3.1c0 1.7 1.4 3.1 3.1 3.1s3.1-1.4 3.1-3.1v-3.1h2.7c1.7 0 3.1-1.4 3.1-3.1s-1.2-3.1-2.9-3.1h-2.7v-3.4c6.6-1.4 11.6-7.3 11.6-14.4zm-23.3 0c0-4.7 3.8-8.5 8.5-8.5s8.5 3.8 8.5 8.5-3.8 8.5-8.5 8.5-8.5-3.8-8.5-8.5z" fill="#f0f9fc"/></svg>