<svg enable-background="new 0 0 200 200" viewBox="0 0 200 200" xmlns="http://www.w3.org/2000/svg"><g fill="#fff"><circle cx="128.6" cy="80.9" r="13"/><circle cx="73.1" cy="80.9" r="13"/><path d="m183.4 91.4c0 5.4.6 10.8-.1 16.1-1.4 9.5-10.2 15.8-19.8 15.1-.2 0-.5.2-.6.4-2.2 3.8-4.1 7.9-6.6 11.5-7 9.7-16.5 14.4-28.7 14.1-11.6-.4-23.1-.1-34.7-.1-4.5 0-6.7-1.1-7.4-3.8-.9-3.3.8-7.6 4.1-9.4 1.4-.8 3.2-1.3 4.8-1.4 4-.2 8.1-.1 12.1 0 2.6.1 4.6 1.5 6.2 3.5.3.4 1.2.5 1.9.5 5.8.1 11.7.4 17.4 0 7.1-.4 12.3-4.5 16.1-10.1 12.6-18.6 15.5-38.5 6.6-59.4-6.8-15.9-18.7-26.7-34.9-32.6-11-4-22.2-4.5-33.5-1.8-25.1 6.1-43.1 26.8-45.6 52.6-1.2 12.7 1.5 24.5 7.8 35.5 1.4 2.5.6 5.3-1.9 6.8s-5.5 1-7-1.5c-1-1.6-1.4-3.8-2.7-4.7s-3.5-.2-5.3-.5c-8.9-1.4-15.6-10.1-15.3-19.2.3-7.8-.1-15.7.1-23.6.2-10.4 9.6-18.6 20.1-17.6.2 0 .5-.3.7-.5 7.9-15.8 19.8-27.3 36.1-33.8 24.2-9.6 47.1-6.7 68.3 8.4 9.3 6.6 16.2 15.2 21.2 25.4.1.2.6.5.9.5 7.8-.8 16.3 4.8 18.9 12.2 1.7 4.9.9 9.9 1.2 14.9v2.6c-.2-.1-.3-.1-.4-.1z"/></g><path d="m100 118.7c-7.4 0-14.9.7-22.3-.1-15.3-1.7-27.1-15.1-27.8-30.6-.7-15.8 9.9-30.2 25.1-33.1 6.5-1.2 13.3-.9 20-1 8.6-.1 17.1-.4 25.6.2 19.4 1.3 33.2 21.2 28.5 40-3.2 12.9-15.2 26-35.1 25-4.7-.2-9.4 0-14.1 0 .1-.2.1-.3.1-.4zm37.2-38.4c-.1-5.5-4.6-9.9-10.1-9.8-5.4.1-9.9 4.7-9.8 10 .1 5.6 4.6 9.9 10.1 9.8s9.9-4.7 9.8-10zm-56 .2c0-5.6-4.4-10-10-10-5.4 0-9.8 4.5-9.8 10 0 5.4 4.5 9.8 10.1 9.8 5.2 0 9.7-4.5 9.7-9.8z" fill="#cc198e"/></svg>