<svg enable-background="new 0 0 200 200" viewBox="0 0 200 200" xmlns="http://www.w3.org/2000/svg" xmlns:xlink="http://www.w3.org/1999/xlink"><linearGradient id="a"><stop offset=".00000041024" stop-color="#e3ffca"/><stop offset="1" stop-color="#008c73"/></linearGradient><linearGradient id="b" gradientTransform="matrix(1 0 0 -1 0 -676)" gradientUnits="userSpaceOnUse" x1="54.1134" x2="80.4623" xlink:href="#a" y1="-764.436" y2="-764.436"/><linearGradient id="c" gradientTransform="matrix(1 0 0 -1 0 -676)" gradientUnits="userSpaceOnUse" x1="85.8185" x2="112.1674" xlink:href="#a" y1="-764.436" y2="-764.436"/><linearGradient id="d" gradientTransform="matrix(1 0 0 -1 0 -676)" gradientUnits="userSpaceOnUse" x1="119.4821" x2="145.831" xlink:href="#a" y1="-764.436" y2="-764.436"/><linearGradient id="e" gradientTransform="matrix(1 0 0 -1 0 -676)" gradientUnits="userSpaceOnUse" x1="54.1134" x2="80.4623" xlink:href="#a" y1="-790.6" y2="-790.6"/><linearGradient id="f" gradientTransform="matrix(1 0 0 -1 0 -676)" gradientUnits="userSpaceOnUse" x1="85.8185" x2="112.1674" y1="-790.6" y2="-790.6"><stop offset=".00000041024" stop-color="#e3ffca"/><stop offset="1" stop-color="#ff00ae"/></linearGradient><linearGradient id="g" gradientTransform="matrix(1 0 0 -1 0 -676)" gradientUnits="userSpaceOnUse" x1="119.4821" x2="145.831" xlink:href="#a" y1="-790.6" y2="-790.6"/><linearGradient id="h" gradientTransform="matrix(1 0 0 -1 0 -676)" gradientUnits="userSpaceOnUse" x1="54.1134" x2="80.4623" xlink:href="#a" y1="-816.764" y2="-816.764"/><linearGradient id="i" gradientTransform="matrix(1 0 0 -1 0 -676)" gradientUnits="userSpaceOnUse" x1="85.8185" x2="112.1674" xlink:href="#a" y1="-816.764" y2="-816.764"/><linearGradient id="j" gradientTransform="matrix(1 0 0 -1 0 -676)" gradientUnits="userSpaceOnUse" x1="119.4821" x2="145.831" xlink:href="#a" y1="-816.764" y2="-816.764"/><path d="m86 120.6c0 7.7 6.2 14 14 14s14-6.2 14-14c0-2.7-.8-5.2-2.1-7.3l-.3-.4c0-.1-.1-.1-.1-.2l-12.3-18.8-11.3 19.4c-1.2 1.9-1.9 4.3-1.9 7.3z" fill="#ff002f"/><path d="m157.3 67.2-57.3 6.2-57.3-6.2v-14.3c0-2.9 2.3-5.2 5.2-5.2h104.1c2.9 0 5.2 2.3 5.2 5.2v14.3z" fill="#ff00ae"/><path d="m152.1 47.7h-8.3c2.9 0 5.2 2.3 5.2 5.2v17.8l8.3-3.4v-14.4c0-2.9-2.4-5.2-5.2-5.2z" fill="#ff00d6"/><path d="m152.1 164.1h-104.2c-2.9 0-5.2-2.3-5.2-5.2v-91.7h114.5v91.6c.1 2.9-2.3 5.3-5.1 5.3z" fill="#effaff"/><path d="m148.9 67.2v91.6c0 2.9-2.3 5.2-5.2 5.2h8.3c2.9 0 5.2-2.3 5.2-5.2v-91.6z" fill="#00db9b"/><path d="m57 59.4c-2.2 0-3.9-1.8-3.9-3.9v-15.6c0-2.2 1.8-3.9 3.9-3.9s3.9 1.8 3.9 3.9v15.6c0 2.1-1.7 3.9-3.9 3.9z" fill="#ff5538"/><path d="m143 59.4c2.2 0 3.9-1.8 3.9-3.9v-15.6c0-2.2-1.8-3.9-3.9-3.9s-3.9 1.8-3.9 3.9v15.6c-.1 2.1 1.7 3.9 3.9 3.9z" fill="#ff5538"/><path d="m133.3 108.2c-.9 0-1.6.7-1.6 1.6 0 .2 0 .6.1 1 .2.3.2.9.4 1.2.7 1.1 1.5 2.1 1.1 2.4.5 0 1.2-.7 1.5-1.8.1-.5-.1-1.4 0-1.8s.1-.8.1-1c0-.9-.7-1.6-1.6-1.6z" fill="#ff8bbb"/><path d="m128.9 110c-.6.6-.6 1.7 0 2.3.1.2.4.4.8.7.8 1.8 3.7.8 3.7 1.5.6-.6-1.5-3.8-2.2-4.5-.7-.6-1.7-.6-2.3 0z" fill="#ff6ba8"/><path d="m127 114.5c0 .9.7 1.6 1.6 1.6.2 0 .6 0 1-.1 1.9.5 3.2-2 3.7-1.5 0-.9-3.8-1.6-4.7-1.6s-1.6.7-1.6 1.6z" fill="#ff8bbb"/><path d="m128.9 119c.6.6 1.7.6 2.3 0 .1-.2.4-.4.6-.8 1.5-.6.8-3.7 1.5-3.7-.6-.6-3.8 1.5-4.5 2.2-.6.6-.6 1.6.1 2.3z" fill="#ff6ba8"/><path d="m133.3 120.8c.9 0 1.6-.7 1.6-1.6 0-.2 0-.6-.1-1 .5-1.8-2-3.2-1.5-3.7-.9 0-1.6 3.8-1.6 4.7s.7 1.6 1.6 1.6z" fill="#ff8bbb"/><path d="m137.8 119c.6-.6.6-1.7 0-2.3-.1-.2-.4-.4-.8-.7-1.2-.8-3.7-.8-3.7-1.5-.6.6 1.5 3.8 2.2 4.5.6.6 1.6.6 2.3 0z" fill="#ff6ba8"/><path d="m139.6 114.5c0-.9-.7-1.6-1.6-1.6-.2 0-.6 0-1 .1-1.6-.2-3.2 2-3.7 1.5 0 .9 3.8 1.6 4.7 1.6s1.6-.7 1.6-1.6z" fill="#ff8bbb"/><path d="m137.8 110c-.6-.6-1.7-.6-2.3 0-.1.2-.4.4-.6.8-.2 1.4-.8 3.7-1.5 3.7.6.6 3.8-1.5 4.5-2.2.5-.6.5-1.6-.1-2.3z" fill="#ff6ba8"/><circle cx="133.3" cy="114.5" fill="#ffdf63" r="1.6"/><path d="m133.8 113c0 .2.1.3.1.5 0 .9-.7 1.6-1.6 1.6-.2 0-.4 0-.5-.1.2.7.8 1.1 1.5 1.1.9 0 1.6-.7 1.6-1.6 0-.7-.4-1.3-1.1-1.5z" fill="#ffce3c"/><path d="m67.1 108.2c-.9 0-1.6.7-1.6 1.6 0 .2 0 .6.1 1 .2.3.2.9.4 1.2.7 1.1 1.4 2.1 1.1 2.4.5 0 1.2-.7 1.5-1.8.1-.5-.1-1.4 0-1.8s.1-.8.1-1c0-.9-.7-1.6-1.6-1.6z" fill="#ff8bbb"/><path d="m62.6 110c-.6.6-.6 1.7 0 2.3.2.2.4.4.8.7.8 1.8 3.7.8 3.7 1.5.6-.6-1.5-3.8-2.2-4.5s-1.7-.6-2.3 0z" fill="#ff6ba8"/><path d="m60.7 114.5c0 .9.7 1.6 1.6 1.6.2 0 .6 0 1-.1 1.9.5 3.2-2 3.7-1.5 0-.9-3.8-1.6-4.7-1.6-.8 0-1.6.7-1.6 1.6z" fill="#ff8bbb"/><path d="m62.6 119c.6.6 1.7.6 2.3 0 .2-.2.4-.4.7-.8 1.5-.6.8-3.7 1.5-3.7-.6-.6-3.8 1.5-4.5 2.2-.6.6-.6 1.6 0 2.3z" fill="#ff6ba8"/><path d="m67.1 120.8c.9 0 1.6-.7 1.6-1.6 0-.2 0-.6-.1-1 .5-1.8-2-3.2-1.5-3.7-.9 0-1.6 3.8-1.6 4.7-.1.9.7 1.6 1.6 1.6z" fill="#ff8bbb"/><path d="m71.5 119c.6-.6.6-1.7 0-2.3-.2-.2-.4-.4-.8-.7-1.2-.8-3.7-.8-3.7-1.5-.6.6 1.5 3.8 2.2 4.5.7.6 1.7.6 2.3 0z" fill="#ff6ba8"/><path d="m73.4 114.5c0-.9-.7-1.6-1.6-1.6-.2 0-.6 0-1 .1-1.6-.2-3.2 2-3.7 1.5 0 .9 3.8 1.6 4.7 1.6s1.6-.7 1.6-1.6z" fill="#ff8bbb"/><path d="m71.5 110c-.6-.6-1.7-.6-2.3 0-.2.2-.4.4-.7.8-.2 1.5-.8 3.7-1.5 3.7.6.6 3.8-1.5 4.5-2.2s.7-1.6 0-2.3z" fill="#ff6ba8"/><circle cx="67.1" cy="114.5" fill="#ffdf63" r="1.6"/><path d="m67.6 113c.1.2.1.3.1.5 0 .9-.7 1.6-1.6 1.6-.2 0-.4 0-.5-.1.2.7.8 1.1 1.5 1.1.9 0 1.6-.7 1.6-1.6 0-.7-.5-1.3-1.1-1.5z" fill="#ffce3c"/><path d="m86.8 120.3c0 7.3 5.9 13.2 13.2 13.2s13.2-5.9 13.2-13.2c0-2.5-.7-4.9-2-6.9l-.2-.4c0-.1-.1-.1-.1-.2l-11.7-17.7-10.7 18.3c-1 1.8-1.7 4.1-1.7 6.9z" fill="#ff002f"/><g fill="none" stroke-miterlimit="10" stroke-width="3"><path d="m69.8 97.5h-5.1c-5.1 0-9.1-4.1-9.1-9.1 0-5.1 4.1-9.1 9.1-9.1h5.1c5.1 0 9.1 4.1 9.1 9.1 0 5-4 9.1-9.1 9.1z" opacity=".22" stroke="url(#b)"/><path d="m101.6 97.5h-5.1c-5.1 0-9.1-4.1-9.1-9.1 0-5.1 4.1-9.1 9.1-9.1h5.1c5.1 0 9.1 4.1 9.1 9.1 0 5-4.1 9.1-9.1 9.1z" opacity=".22" stroke="url(#c)"/><path d="m135.2 97.5h-5.1c-5.1 0-9.1-4.1-9.1-9.1 0-5.1 4.1-9.1 9.1-9.1h5.1c5.1 0 9.1 4.1 9.1 9.1 0 5-4.1 9.1-9.1 9.1z" opacity=".22" stroke="url(#d)"/><path d="m69.8 123.7h-5.1c-5.1 0-9.1-4.1-9.1-9.1 0-5.1 4.1-9.1 9.1-9.1h5.1c5.1 0 9.1 4.1 9.1 9.1 0 5-4 9.1-9.1 9.1z" opacity=".22" stroke="url(#e)"/><path d="m101.6 123.7h-5.1c-5.1 0-9.1-4.1-9.1-9.1 0-5.1 4.1-9.1 9.1-9.1h5.1c5.1 0 9.1 4.1 9.1 9.1 0 5-4.1 9.1-9.1 9.1z" opacity=".22" stroke="url(#f)"/><path d="m135.2 123.7h-5.1c-5.1 0-9.1-4.1-9.1-9.1 0-5.1 4.1-9.1 9.1-9.1h5.1c5.1 0 9.1 4.1 9.1 9.1 0 5-4.1 9.1-9.1 9.1z" opacity=".22" stroke="url(#g)"/><path d="m69.8 149.9h-5.1c-5.1 0-9.1-4.1-9.1-9.1 0-5.1 4.1-9.1 9.1-9.1h5.1c5.1 0 9.1 4.1 9.1 9.1 0 4.9-4 9.1-9.1 9.1z" opacity=".22" stroke="url(#h)"/><path d="m101.6 149.9h-5.1c-5.1 0-9.1-4.1-9.1-9.1 0-5.1 4.1-9.1 9.1-9.1h5.1c5.1 0 9.1 4.1 9.1 9.1 0 4.9-4.1 9.1-9.1 9.1z" opacity=".22" stroke="url(#i)"/><path d="m135.2 149.9h-5.1c-5.1 0-9.1-4.1-9.1-9.1 0-5.1 4.1-9.1 9.1-9.1h5.1c5.1 0 9.1 4.1 9.1 9.1 0 4.9-4.1 9.1-9.1 9.1z" opacity=".22" stroke="url(#j)"/></g></svg>