<svg enable-background="new 0 0 200 200" viewBox="0 0 200 200" xmlns="http://www.w3.org/2000/svg"><g fill="#fff"><path d="m100 49c-1 0-1.8-.8-1.8-1.8v-31.3c0-1 .8-1.8 1.8-1.8s1.8.8 1.8 1.8v31.3c0 1-.8 1.8-1.8 1.8z"/><path d="m100 49.7c-1.3 0-2.4-1.1-2.4-2.4v-31.4c0-1.3 1.1-2.4 2.4-2.4s2.4 1.1 2.4 2.4v31.3c0 1.4-1.1 2.5-2.4 2.5zm0-34.8c-.6 0-1.1.5-1.1 1.1v31.3c0 .6.5 1.1 1.1 1.1s1.1-.5 1.1-1.1v-31.4c0-.6-.5-1-1.1-1z"/><path d="m162.9 80.6h-31.3c-1 0-1.8-.8-1.8-1.8s.8-1.8 1.8-1.8h31.3c1 0 1.8.8 1.8 1.8s-.8 1.8-1.8 1.8z"/><path d="m162.9 81.3h-31.3c-1.3 0-2.4-1.1-2.4-2.4s1.1-2.4 2.4-2.4h31.3c1.3 0 2.4 1.1 2.4 2.4s-1.1 2.4-2.4 2.4zm-31.3-3.5c-.6 0-1.1.5-1.1 1.1s.5 1.1 1.1 1.1h31.3c.6 0 1.1-.5 1.1-1.1s-.5-1.1-1.1-1.1z"/><path d="m68.4 80.6h-31.3c-1 0-1.8-.8-1.8-1.8s.8-1.8 1.8-1.8h31.3c1 0 1.8.8 1.8 1.8s-.8 1.8-1.8 1.8z"/><path d="m68.4 81.3h-31.3c-1.3 0-2.4-1.1-2.4-2.4s1.1-2.4 2.4-2.4h31.3c1.3 0 2.4 1.1 2.4 2.4s-1.1 2.4-2.4 2.4zm-31.3-3.5c-.6 0-1.1.5-1.1 1.1s.5 1.1 1.1 1.1h31.3c.6 0 1.1-.5 1.1-1.1s-.5-1.1-1.1-1.1z"/><path d="m122.3 58.3c-.4 0-.9-.2-1.2-.5-.7-.7-.7-1.8 0-2.5l22.1-22.1c.7-.7 1.8-.7 2.5 0s.7 1.8 0 2.5l-22.1 22.1c-.4.3-.8.5-1.3.5z"/><path d="m122.3 58.9c-.6 0-1.2-.2-1.7-.7-.9-.9-.9-2.5 0-3.4l22.1-22.1c.9-.9 2.5-.9 3.4 0s.9 2.5 0 3.4l-22.1 22.1c-.4.5-1 .7-1.7.7zm22.2-25.6c-.3 0-.6.1-.8.3l-22.2 22.1c-.4.4-.4 1.1 0 1.5s1.1.4 1.5 0l22.1-22.2c.4-.4.4-1.1 0-1.5 0-.1-.3-.2-.6-.2z"/><path d="m55.5 125.1c-.5 0-.9-.2-1.2-.5-.7-.7-.7-1.8 0-2.5l22.1-22.1c.7-.7 1.8-.7 2.5 0s.7 1.8 0 2.5l-22.1 22.1c-.4.3-.8.5-1.3.5z"/><path d="m55.5 125.8c-.6 0-1.2-.2-1.7-.7-.9-.9-.9-2.5 0-3.4l22.1-22.2c.9-.9 2.5-.9 3.4 0s.9 2.5 0 3.4l-22.1 22.1c-.4.5-1 .8-1.7.8zm22.2-25.7c-.3 0-.6.1-.8.3l-22.2 22.1c-.4.4-.4 1.1 0 1.5s1.1.4 1.5 0l22.2-22c.4-.4.4-1.1 0-1.5-.2-.3-.5-.4-.7-.4z"/><path d="m144.5 125.1c-.4 0-.9-.2-1.2-.5l-22.1-22.1c-.7-.7-.7-1.8 0-2.5s1.8-.7 2.5 0l22.1 22.1c.7.7.7 1.8 0 2.5-.4.3-.9.5-1.3.5z"/><path d="m144.5 125.8c-.6 0-1.2-.2-1.7-.7l-22.1-22.1c-.9-.9-.9-2.5 0-3.4s2.5-.9 3.4 0l22.2 22.2c.9.9.9 2.5 0 3.4-.6.3-1.2.6-1.8.6zm-22.2-25.7c-.3 0-.6.1-.8.3-.4.4-.4 1.1 0 1.5l22.1 22.2c.4.4 1.1.4 1.5 0s.4-1.1 0-1.5l-22.1-22.1c-.1-.3-.4-.4-.7-.4z"/><path d="m77.7 58.3c-.4 0-.9-.2-1.2-.5l-22.2-22.2c-.7-.7-.7-1.8 0-2.5s1.8-.7 2.5 0l22.1 22.1c.7.7.7 1.8 0 2.5-.3.4-.8.6-1.2.6z"/><path d="m77.7 58.9c-.6 0-1.2-.2-1.7-.7l-22.2-22.1c-.9-.9-.9-2.5 0-3.4s2.5-.9 3.4 0l22.1 22.1c.9.9.9 2.5 0 3.4-.4.5-1 .7-1.6.7zm-22.2-25.6c-.3 0-.6.1-.8.3-.4.4-.4 1.1 0 1.5l22.2 22.2c.4.4 1.1.4 1.5 0s.4-1.1 0-1.5l-22.1-22.2c-.2-.2-.5-.3-.8-.3z"/></g><path d="m137.2 81.1c0-20.6-16.7-37.3-37.3-37.2-20.6 0-37.2 16.7-37.2 37.2 0 19 14.2 34.7 32.6 37v16.6h-9.3c-2.6 0-4.7 2.1-4.7 4.6 0 2.6 2.1 4.6 4.7 4.6h9.3v9.8c0 2.6 2.1 4.6 4.7 4.6s4.7-2.1 4.7-4.6v-9.8h9.3c2.6 0 4.7-2.1 4.7-4.6 0-2.6-2.1-4.6-4.7-4.6h-9.3v-16.7c18.3-2.3 32.5-17.9 32.5-36.9zm-65.1 0c0-15.4 12.5-27.9 27.9-27.9s27.9 12.5 27.9 27.9-12.5 27.9-27.9 27.9-27.9-12.5-27.9-27.9z" fill="#ff00ae"/><path d="m137.2 81.1c0-10.7-4.5-20.4-11.8-27.2 2.9 6.1 4.4 12.9 4.4 20.1 0 21.8-14.6 40.2-34.6 45.9v14.7h-9.2c-2.6 0-4.7 2.1-4.7 4.6s2.1 4.6 4.7 4.6h9.3v9.8c0 2.6 2.1 4.6 4.7 4.6s4.7-2.1 4.7-4.6v-9.8h9.3c2.6 0 4.7-2.1 4.7-4.6s-2.1-4.6-4.7-4.6h-9.3v-16.6c18.3-2.3 32.5-17.9 32.5-36.9z" fill="#ff00d6"/><path d="m145.3 109.6 1.2-.7c.6-.4.6-1.2 0-1.6l-1.2-.7c-.9-.6-1.6-1.3-2.1-2.3l-.8-1.6c-.3-.7-1.3-.7-1.6 0l-.8 1.6c-.5.9-1.2 1.7-2.1 2.3l-1.2.7c-.6.4-.6 1.2 0 1.6l1.2.7c.9.6 1.6 1.3 2.1 2.3l.8 1.6c.3.7 1.3.7 1.6 0l.8-1.6c.5-.9 1.2-1.7 2.1-2.3z" fill="#00db9b"/><path d="m73.1 121.4 1.2-.7c.6-.4.6-1.2 0-1.6l-1.2-.7c-.9-.6-1.6-1.3-2.1-2.3l-.8-1.6c-.3-.7-1.3-.7-1.7 0l-.8 1.6c-.5.9-1.2 1.7-2.1 2.3l-1.2.7c-.6.4-.6 1.2 0 1.6l1.2.7c.9.6 1.6 1.3 2.1 2.3l.8 1.6c.3.7 1.3.7 1.7 0l.8-1.6c.5-.9 1.2-1.7 2.1-2.3z" fill="#2c56a9"/><path d="m146.5 52.4 1.2-.7c.6-.4.6-1.2 0-1.6l-1.2-.7c-.9-.5-1.6-1.3-2.1-2.3l-.8-1.6c-.3-.7-1.3-.7-1.6 0l-.8 1.6c-.5.9-1.2 1.7-2.1 2.3l-1.2.7c-.6.4-.6 1.2 0 1.6l1.2.7c.9.5 1.6 1.3 2.1 2.3l.8 1.6c.3.7 1.3.7 1.6 0l.8-1.6c.5-1 1.2-1.8 2.1-2.3z" fill="#ff5538"/><path d="m60.9 57.4 1.2-.7c.6-.4.6-1.2 0-1.6l-1.2-.7c-.9-.5-1.6-1.3-2.1-2.3l-.8-1.6c-.3-.7-1.3-.7-1.7 0l-.8 1.6c-.5.9-1.2 1.7-2.1 2.3l-1.2.7c-.6.4-.6 1.2 0 1.6l1.2.7c.9.5 1.6 1.3 2.1 2.3l.8 1.6c.3.7 1.3.7 1.7 0l.8-1.6c.5-.9 1.2-1.7 2.1-2.3z" fill="#ffd2ff"/><path d="m100.4 112.2c-10 0-18.1-8.1-18.1-18.1v-26.9c0-10 8.1-18.1 18.1-18.1s18.1 8.1 18.1 18.1v26.9c0 10-8.1 18.1-18.1 18.1zm0-60.3c-8.4 0-15.2 6.8-15.2 15.2v26.9c0 8.4 6.8 15.2 15.2 15.2s15.2-6.8 15.2-15.2v-26.8c0-8.4-6.8-15.3-15.2-15.3z" fill="#fff"/><path d="m100.4 112.7c-10.3 0-18.7-8.4-18.7-18.6v-26.9c0-10.3 8.4-18.6 18.7-18.6s18.6 8.4 18.6 18.6v26.9c.1 10.3-8.3 18.6-18.6 18.6zm0-63.1c-9.7 0-17.6 7.9-17.6 17.6v26.9c0 9.7 7.9 17.6 17.6 17.6s17.6-7.9 17.6-17.6v-26.9c0-9.7-7.9-17.6-17.6-17.6zm0 60.2c-8.7 0-15.8-7.1-15.8-15.8v-26.8c0-8.7 7.1-15.8 15.8-15.8s15.8 7.1 15.8 15.8v26.9c0 8.7-7.1 15.7-15.8 15.7zm0-57.3c-8.1 0-14.7 6.6-14.7 14.7v26.9c0 8.1 6.6 14.7 14.7 14.7s14.7-6.6 14.7-14.7v-26.9c0-8.1-6.6-14.7-14.7-14.7z" fill="#fff"/></svg>